<?xml version="1.0" standalone="no"?>
<svg xmlns="http://www.w3.org/2000/svg" viewBox="0 0 40.432 46.687" width="40.432" height="46.687"><polygon fill="none" stroke="#a16aff" stroke-width="3" points="38.932,12.42175 38.932,34.265249999999995 20.216,45.187 1.5,34.265249999999995 1.5,12.42175 20.216,1.5"></polygon><path fill="#5e00ff" fill-rule="nonzero" d="M7.68 0Q10.85 0 12.89 1.28Q14.93 2.57 14.98 5.09L14.98 5.09L14.98 5.38L10.01 5.38L10.01 5.28Q10.01 4.56 9.48 4.08Q8.95 3.60 7.87 3.60L7.87 3.60Q6.82 3.60 6.25 3.91Q5.69 4.22 5.69 4.68L5.69 4.68Q5.69 5.33 6.46 5.64Q7.22 5.95 8.93 6.29L8.93 6.29Q10.92 6.70 12.20 7.14Q13.49 7.58 14.45 8.59Q15.41 9.60 15.43 11.33L15.43 11.33Q15.43 14.26 13.45 15.67Q11.47 17.09 8.16 17.09L8.16 17.09Q4.30 17.09 2.15 15.79Q0 14.50 0 11.21L0 11.21L5.02 11.21Q5.02 12.46 5.66 12.88Q6.31 13.30 7.68 13.30L7.68 13.30Q8.69 13.30 9.35 13.08Q10.01 12.86 10.01 12.19L10.01 12.19Q10.01 11.59 9.28 11.29Q8.54 10.99 6.89 10.66L6.89 10.66Q4.87 10.22 3.55 9.76Q2.23 9.29 1.25 8.21Q0.26 7.13 0.26 5.28L0.26 5.28Q0.26 2.57 2.36 1.28Q4.46 0 7.68 0L7.68 0Z" transform="translate(12.501, 14.8)"></path></svg>